<svg width="40" height="40" viewBox="0 0 40 40" fill="none" xmlns="http://www.w3.org/2000/svg">
<rect x="2.6665" y="9.23047" width="26.6667" height="3.07689" fill="white"/>
<rect width="37.3334" height="30.7689" rx="1.5" fill="#06C1B6"/>
<rect x="5.3335" y="6.15332" width="26.6667" height="3.07689" fill="white"/>
<rect x="5.3335" y="12.3066" width="26.6667" height="3.07689" fill="white"/>
<ellipse cx="30.6666" cy="29.231" rx="9.33334" ry="10.7691" fill="white"/>
<path d="M30.6927 21.5381C27.031 21.5381 24 24.9753 24 29.2003C24 33.4253 27.031 36.9226 30.6927 36.9226C34.3544 36.9226 37.3333 33.4253 37.3333 29.2003C37.3333 24.9753 34.3544 21.5381 30.6927 21.5381ZM33.9797 31.718C34.2844 32.0695 34.2844 32.6413 33.9797 32.9932C33.6774 33.3418 33.1818 33.3475 32.8745 32.9932L30.6927 30.4749L28.4586 32.9935C28.1539 33.3451 27.6583 33.3451 27.3534 32.9935C27.0487 32.6419 27.0487 32.0701 27.3534 31.7183L29.5357 29.2003L27.3534 26.6823C27.0487 26.3304 27.0487 25.7586 27.3534 25.407C27.6583 25.0555 28.2262 25.0555 28.5309 25.407L30.6927 27.9256L32.8745 25.407C33.1787 25.0561 33.6742 25.0549 33.9797 25.407C34.2844 25.7586 34.2844 26.3304 33.9797 26.6823L31.7974 29.2003L33.9797 31.718Z" fill="#06C1B6"/>
</svg>
