<svg width="16" height="16" viewBox="0 0 16 16" fill="none" xmlns="http://www.w3.org/2000/svg">
<path d="M4.66669 12C3.93335 12 3.34002 12.6 3.34002 13.3333C3.34002 14.0666 3.93335 14.6666 4.66669 14.6666C5.40002 14.6666 6.00002 14.0666 6.00002 13.3333C6.00002 12.6 5.40002 12 4.66669 12ZM0.666687 1.33331V2.66665H2.00002L4.40002 7.72665L3.50002 9.35998C3.39335 9.54665 3.33335 9.76665 3.33335 9.99998C3.33335 10.7333 3.93335 11.3333 4.66669 11.3333H12.6667V9.99998H4.94669C4.85335 9.99998 4.78002 9.92665 4.78002 9.83331L4.80002 9.75331L5.40002 8.66665H10.3667C10.8667 8.66665 11.3067 8.39331 11.5334 7.97998L13.92 3.65331C13.9734 3.55998 14 3.44665 14 3.33331C14 2.96665 13.7 2.66665 13.3334 2.66665H3.47335L2.84669 1.33331H0.666687ZM11.3334 12C10.6 12 10.0067 12.6 10.0067 13.3333C10.0067 14.0666 10.6 14.6666 11.3334 14.6666C12.0667 14.6666 12.6667 14.0666 12.6667 13.3333C12.6667 12.6 12.0667 12 11.3334 12Z" fill="white"/>
</svg>
